<?xml version="1.0" encoding="UTF-8" standalone="no"?>
<!-- Created with Inkscape (http://www.inkscape.org/) -->

<svg
   xmlns:dc="http://purl.org/dc/elements/1.1/"
   xmlns:cc="http://creativecommons.org/ns#"
   xmlns:rdf="http://www.w3.org/1999/02/22-rdf-syntax-ns#"
   xmlns:svg="http://www.w3.org/2000/svg"
   xmlns="http://www.w3.org/2000/svg"
   xmlns:sodipodi="http://sodipodi.sourceforge.net/DTD/sodipodi-0.dtd"
   xmlns:inkscape="http://www.inkscape.org/namespaces/inkscape"
   width="512"
   height="512"
   id="svg2"
   version="1.1"
   inkscape:version="0.48.4 r9939"
   sodipodi:docname="logoApp.svg"
   inkscape:export-filename="D:\Documentos\Emil\Google Drive\UNAH\2014\3 Periodo\IS902 - Industria del Software\Proyecto\001 - Análisis y Diseño\logoApp.png"
   inkscape:export-xdpi="180"
   inkscape:export-ydpi="180">
  <title
     id="title2997">Logo App</title>
  <defs
     id="defs4" />
  <sodipodi:namedview
     id="base"
     pagecolor="#ffffff"
     bordercolor="#666666"
     borderopacity="1.0"
     inkscape:pageopacity="0.0"
     inkscape:pageshadow="2"
     inkscape:zoom="0.70710678"
     inkscape:cx="-65.871902"
     inkscape:cy="358.17189"
     inkscape:document-units="px"
     inkscape:current-layer="layer1"
     showgrid="false"
     inkscape:window-width="1440"
     inkscape:window-height="847"
     inkscape:window-x="-8"
     inkscape:window-y="-8"
     inkscape:window-maximized="1"
     fit-margin-top="0"
     fit-margin-left="0"
     fit-margin-right="0"
     fit-margin-bottom="0" />
  <metadata
     id="metadata7">
    <rdf:RDF>
      <cc:Work
         rdf:about="">
        <dc:format>image/svg+xml</dc:format>
        <dc:type
           rdf:resource="http://purl.org/dc/dcmitype/StillImage" />
        <dc:title>Logo App</dc:title>
      </cc:Work>
    </rdf:RDF>
  </metadata>
  <g
     inkscape:label="Capa 1"
     inkscape:groupmode="layer"
     id="layer1"
     transform="translate(8e-6,-540.36217)">
    <path
       sodipodi:type="arc"
       style="opacity:0.79000005;fill:#0000ff"
       id="path2987"
       sodipodi:cx="344"
       sodipodi:cy="362.36218"
       sodipodi:rx="184"
       sodipodi:ry="184"
       d="m 528,362.36218 a 184,184 0 1 1 -368,0 184,184 0 1 1 368,0 z"
       transform="matrix(1.391134,0,0,1.391134,-222.58144,292.29915)" />
    <path
       sodipodi:type="arc"
       style="opacity:0.79000005;fill:#000080"
       id="path2989"
       sodipodi:cx="365"
       sodipodi:cy="783.36218"
       sodipodi:rx="145"
       sodipodi:ry="139"
       d="m 510,783.36218 a 145,139 0 1 1 -290,0 145,139 0 1 1 290,0 z"
       transform="matrix(1.588771,0,0,1.6573511,-349.52963,-501.91263)" />
    <g
       transform="scale(0.99168188,1.0083879)"
       style="font-size:67.10562897px;font-style:normal;font-variant:normal;font-weight:normal;font-stretch:normal;line-height:125%;letter-spacing:0px;word-spacing:0px;fill:#808080;fill-opacity:1;stroke:none;font-family:Gabriola;-inkscape-font-specification:Gabriola"
       id="text2991">
      <path
         d="m 103.05567,743.52295 c -1.79222,11.26491 -3.947041,21.45232 -6.464478,30.56226 -2.517598,9.11006 -5.205795,17.18532 -8.064598,24.2258 0.127937,3.20027 0.415958,6.19782 0.864064,8.99267 0.447959,2.7949 1.141344,5.23774 2.080154,7.32854 0.93866,2.09084 2.144082,3.7443 3.616268,4.96037 1.472029,1.2161 3.296163,1.82415 5.47241,1.82414 2.17607,10e-6 4.14955,-0.49069 5.92044,-1.47211 1.7707,-0.98139 3.36015,-2.15481 4.76835,-3.52027 l 0.83206,0.32003 c 0.17058,0.68273 0.28793,1.36545 0.35203,2.04815 0.0639,0.68273 0.0959,1.36545 0.096,2.04815 -9e-5,2.13351 -0.34145,4.18166 -1.02407,6.14446 -0.68281,1.96282 -1.64288,3.69094 -2.88022,5.18438 -1.23751,1.49345 -2.70962,2.6882 -4.41632,3.58427 -1.70688,0.89606 -3.58435,1.3441 -5.632421,1.3441 -2.816288,0 -5.163127,-0.69339 -7.040522,-2.08016 -1.877546,-1.38676 -3.402991,-3.28557 -4.57634,-5.69642 -1.17349,-2.41084 -2.04822,-5.26971 -2.624195,-8.57663 -0.57611,-3.3069 -0.970805,-6.88049 -1.184087,-10.7208 -2.474915,4.6937 -4.971098,8.76867 -7.488556,12.22491 -2.517577,3.45626 -4.949755,6.31514 -7.296541,8.57663 -2.346891,2.26151 -4.576387,3.93629 -6.688497,5.02438 -2.1122,1.08807 -4.021673,1.63211 -5.728425,1.63212 -1.621491,-10e-6 -3.210941,-0.23469 -4.768354,-0.70406 -1.557482,-0.46937 -3.040257,-1.3441 -4.44833,-2.62419 -1.408133,-1.28009 -2.709562,-3.06156 -3.904289,-5.3444 -1.194781,-2.28282 -2.240191,-5.23771 -3.136233,-8.86465 l -0.512038,0.12801 c -0.128032,2.04816 -0.245374,4.0003 -0.352026,5.85643 -0.106697,1.85614 -0.192037,3.68028 -0.256019,5.47241 -0.06403,1.79213 -0.106697,3.59493 -0.12801,5.4084 -0.02136,1.81346 -0.03202,3.72293 -0.032,5.72842 -2.2e-5,7.72323 0.191992,15.44646 0.576043,23.16972 0.384005,7.7232 0.938713,15.72379 1.664123,24.00178 l -13.184978,1.60012 -1.3441,-0.064 c -0.04268,-1.53617 -0.07468,-3.07229 -0.09601,-4.60835 -0.02134,-1.53616 -0.03201,-3.09361 -0.032,-4.67234 -10e-6,-13.52637 0.725377,-27.04203 2.176161,-40.54701 1.450761,-13.505 3.349567,-26.8073 5.696423,-39.90696 -0.554725,-3.75491 -1.002758,-7.7232 -1.3441,-11.90489 -0.341374,-4.18159 -0.512053,-8.27789 -0.512038,-12.28891 -1.5e-5,-5.50434 0.170664,-10.80606 0.512038,-15.90518 0.341342,-5.09896 0.746705,-9.82464 1.21609,-14.17705 0.127992,-1.19467 0.490686,-2.1654 1.088081,-2.91222 0.597359,-0.74663 1.30141,-1.32267 2.112157,-1.72812 0.810705,-0.40527 1.685436,-0.68263 2.624194,-0.83207 0.938713,-0.14925 1.813443,-0.22392 2.624195,-0.22401 1.493417,9e-5 3.050864,0.17077 4.672347,0.51204 1.621421,0.34145 3.093529,0.83215 4.416328,1.47211 -1.06678,4.82177 -2.11219,9.64346 -3.136233,14.46507 -1.024107,4.82176 -1.93084,9.56878 -2.720202,14.24106 -0.78942,4.6724 -1.418799,9.2274 -1.88814,13.66501 -0.469395,4.43771 -0.704079,8.70469 -0.704052,12.80095 -2.7e-5,4.52303 0.319997,8.26731 0.960071,11.23283 0.640019,2.96558 1.504083,5.31242 2.592192,7.04052 1.08805,1.72815 2.378811,2.94424 3.872288,3.64828 1.493408,0.70406 3.093526,1.05609 4.800356,1.05607 1.877432,2e-5 4.010921,-0.66136 6.400475,-1.98414 2.389463,-1.32275 4.842976,-3.46691 7.360546,-6.43248 2.517465,-2.96553 5.00298,-6.81648 7.456553,-11.55286 2.453453,-4.73631 4.704285,-10.51807 6.752501,-17.34528 0.341292,-5.50436 0.831994,-11.35012 1.472109,-17.53731 0.639979,-6.18705 1.47204,-12.8222 2.496186,-19.90547 0.255948,-1.87739 1.173348,-3.24282 2.752204,-4.09631 1.578709,-0.8533 3.392175,-1.28 5.440403,-1.28009 1.280015,9e-5 2.592111,0.17077 3.936292,0.51204 1.344021,0.34145 2.634781,0.85348 3.872291,1.53611 z"
         style="font-size:262.16345215px;text-align:center;text-anchor:middle;fill:#808080;font-family:Gabriola;-inkscape-font-specification:Gabriola"
         id="path3026" />
    </g>
    <g
       transform="scale(0.83728524,1.1943361)"
       style="font-size:42.97903441999999800px;font-style:normal;font-variant:normal;font-weight:bold;font-stretch:normal;line-height:125%;letter-spacing:0px;word-spacing:0px;fill:#ffffff;fill-opacity:1;stroke:none;font-family:Aharoni;-inkscape-font-specification:Aharoni Bold"
       id="text3001">
      <path
         d="m 192.58846,634.89148 0,34.5637 -12.7489,0 0,33.61934 -38.34116,0 0,-79.98759 c -1e-5,-15.04676 4.6431,-27.49661 13.92936,-37.34958 9.28621,-9.85273 20.98056,-14.77915 35.0831,-14.77929 15.55045,1.4e-4 28.55118,6.70511 39.00222,20.11495 l -31.44731,22.94803 c -1.76287,-4.9106 -4.87927,-7.36594 -9.3492,-7.36603 -5.91806,9e-5 -8.87706,4.09233 -8.87701,12.27672 l 0,15.95975 z"
         style="font-size:193.40565491000001000px;font-weight:normal;font-family:Bauhaus 93;-inkscape-font-specification:Bauhaus 93;fill:#ffffff"
         id="path3010" />
      <path
         d="m 287.11925,667.75533 0,36.54687 c -2.8961,0.50366 -5.54032,0.75549 -7.93265,0.75549 -14.16549,0 -25.97003,-4.65886 -35.41363,-13.97658 -9.44365,-9.3177 -14.16546,-20.99632 -14.16546,-35.03589 0,-13.66173 4.76903,-25.24591 14.30711,-34.75258 9.53804,-9.5065 21.13796,-14.25979 34.7998,-14.25989 15.23566,1e-4 27.2448,4.45434 36.02747,13.36275 8.78248,8.90857 13.17377,21.0751 13.17387,36.49965 l 0,46.17937 -35.3192,0 0,-43.62959 c -7e-5,-4.9736 -1.212,-8.93992 -3.6358,-11.89898 -2.42393,-2.95895 -5.68198,-4.43845 -9.77416,-4.43851 -3.71455,6e-5 -6.92538,1.35364 -9.63251,4.06076 -2.70722,2.70723 -4.0608,5.91806 -4.06076,9.63251 -4e-5,3.90341 1.22763,7.11424 3.68302,9.63251 2.45529,2.51834 5.57169,3.77749 9.34919,3.77745 3.08487,4e-5 5.94944,-0.81841 8.59371,-2.45534 z"
         style="font-size:193.40565491000001000px;font-weight:normal;font-family:Bauhaus 93;-inkscape-font-specification:Bauhaus 93;fill:#ffffff"
         id="path3012" />
      <path
         d="m 406.29793,659.72824 35.03589,-1.32211 c -1.00742,13.59886 -6.0755,24.77382 -15.20425,33.5249 -9.12893,8.75111 -20.24093,13.12666 -33.33604,13.12666 -13.8507,0 -25.54506,-4.81625 -35.0831,-14.44876 -9.53808,-9.63249 -14.30712,-21.43702 -14.30711,-35.41364 -1e-5,-13.28398 4.81624,-24.64781 14.44876,-34.09152 9.63248,-9.44355 21.18518,-14.16536 34.65814,-14.16546 11.773,10e-5 22.16099,3.71459 31.164,11.14349 9.00284,7.42908 14.60606,16.90418 16.80967,28.42535 l -35.79138,1.32211 c -3.08498,-4.02923 -6.98835,-6.04387 -11.7101,-6.04393 -4.02934,6e-5 -7.33461,1.32217 -9.91582,3.96633 -2.5813,2.64427 -3.87193,5.98102 -3.87189,10.01025 -4e-5,4.09229 1.36928,7.52347 4.10798,10.29356 2.73861,2.77017 6.15405,4.15524 10.24634,4.1552 5.98091,4e-5 10.23054,-3.49411 12.74891,-10.48243 z"
         style="font-size:193.40565491000001000px;font-weight:normal;font-family:Bauhaus 93;-inkscape-font-specification:Bauhaus 93;fill:#ffffff"
         id="path3014" />
      <path
         d="m 488.36312,574.1689 0,36.07469 15.86531,0 0,37.30236 -15.86531,0 c -4e-5,7.492 1.18041,12.65451 3.54137,15.48756 2.36086,2.83313 6.68919,4.24967 12.98499,4.24964 l 0,37.11348 c -1.82582,0.063 -3.17941,0.0944 -4.06076,0.0944 -7.99566,0 -15.53482,-1.85725 -22.61751,-5.57175 -7.08275,-3.71448 -12.76466,-8.75109 -17.04576,-15.10981 -5.41436,-8.1215 -8.12153,-18.88724 -8.12152,-32.29724 l 0,-77.34337 z"
         style="font-size:193.40565491000001000px;font-weight:normal;font-family:Bauhaus 93;-inkscape-font-specification:Bauhaus 93;fill:#ffffff"
         id="path3016" />
    </g>
    <g
       transform="scale(1.9802572,0.50498491)"
       style="font-size:37.58533477999999700px;font-style:normal;font-variant:normal;font-weight:bold;font-stretch:normal;line-height:125%;letter-spacing:0px;word-spacing:0px;fill:#999999;fill-opacity:1;stroke:none;font-family:Aharoni;-inkscape-font-specification:Aharoni Bold"
       id="text3005">
      <path
         d="m 80.761644,1722.3578 0,-16.4252 c 3.762174,0 5.643274,-1.4376 5.643306,-4.3128 -3.2e-5,-2.6304 -1.437621,-3.9457 -4.312771,-3.9457 -2.905792,0 -4.358675,1.8047 -4.358651,5.4139 l 0,40.9254 -18.6275,0 0,-38.9984 c -5e-6,-4.0375 0.405273,-7.3485 1.215834,-9.9332 0.81055,-2.5845 2.194611,-4.9932 4.152189,-7.2262 2.202254,-2.4774 4.955084,-4.435 8.258498,-5.8727 3.303377,-1.4375 6.713827,-2.1563 10.231361,-2.1563 6.362066,0 11.707144,2.1411 16.035249,6.4232 4.328011,4.2823 6.492041,9.5891 6.492101,15.9206 -6e-5,6.148 -1.94233,11.1337 -5.826833,14.957 -3.548138,3.5176 -8.900862,5.2763 -16.05819,5.2763 z"
         style="font-size:93.96334839000000700px;font-weight:normal;font-family:Bauhaus 93;-inkscape-font-specification:Bauhaus 93;fill:#999999"
         id="path3019" />
      <path
         d="m 142.92978,1679.8266 c 8.87019,0 16.47871,3.2269 22.82557,9.6807 6.34674,6.454 9.52014,14.1772 9.52021,23.1697 -7e-5,9.1456 -3.19641,16.9147 -9.58903,23.3073 -6.39274,6.3927 -14.16184,9.5891 -23.30732,9.5891 -9.08437,0 -16.83817,-3.2117 -23.26143,-9.6349 -6.42328,-6.4233 -9.63492,-14.1771 -9.63492,-23.2615 0,-9.176 3.23458,-16.9451 9.70374,-23.3073 6.46914,-6.362 14.38352,-9.5431 23.74318,-9.5431 z m -0.55057,18.4439 c -3.82341,10e-5 -7.08092,1.4071 -9.77255,4.221 -2.69168,2.8141 -4.03751,6.2092 -4.03749,10.1855 -2e-5,3.9764 1.35345,7.3715 4.06043,10.1855 2.70692,2.814 5.95679,4.221 9.74961,4.221 3.85393,0 7.11909,-1.3993 9.7955,-4.1981 2.67631,-2.7987 4.0145,-6.2015 4.01455,-10.2084 -5e-5,-4.0068 -1.33824,-7.4097 -4.01455,-10.2084 -2.67641,-2.7987 -5.94157,-4.198 -9.7955,-4.1981 z"
         style="font-size:93.96334839000000700px;font-weight:normal;font-family:Bauhaus 93;-inkscape-font-specification:Bauhaus 93;fill:#999999"
         id="path3021" />
      <path
         d="m 213.49405,1681.1112 0,17.8475 c -1.34586,-0.4587 -2.38582,-0.6881 -3.11988,-0.6882 -1.40703,10e-5 -2.61522,0.5201 -3.62456,1.56 -1.0094,1.04 -1.51409,2.294 -1.51406,3.7622 -3e-5,1.2541 0.55054,2.8446 1.6517,4.7715 l 1.4223,2.4776 c 2.56928,4.4657 3.85393,8.7785 3.85396,12.9383 -3e-5,6.0868 -2.16406,11.2408 -6.49209,15.4618 -4.32809,4.221 -9.61199,6.3315 -15.85173,6.3315 -2.99754,0 -5.96448,-0.6882 -8.90082,-2.0647 l 0,-18.1228 c 1.77404,1.1318 3.34927,1.6976 4.72569,1.6976 1.6211,0 2.97458,-0.4664 4.06043,-1.3993 1.08583,-0.9329 1.62874,-2.1029 1.62876,-3.5099 -2e-5,-0.9176 -0.87174,-2.921 -2.61519,-6.0104 -2.78343,-4.8939 -4.17514,-9.7878 -4.17513,-14.6817 -1e-5,-5.9033 2.10285,-10.9884 6.30857,-15.2553 4.2057,-4.2668 9.22962,-6.4003 15.07176,-6.4003 2.56928,0 5.09271,0.4282 7.57029,1.2846 z"
         style="font-size:93.96334839000000700px;font-weight:normal;font-family:Bauhaus 93;-inkscape-font-specification:Bauhaus 93;fill:#999999"
         id="path3023" />
    </g>
  </g>
</svg>
